<?xml version="1.0" encoding="UTF-8"?>
<svg id="Layer_1" data-name="Layer 1" xmlns="http://www.w3.org/2000/svg" viewBox="0 0 2219.02 575.58">
  <defs>
    <style>
      .cls-1 {
        fill: #c1f0ff;
      }
    </style>
  </defs>
  <path class="cls-1" d="M1593.05,173.15c0,103.39-74.18,159.13-165.28,159.13h-48.81l212.55,222.55v11.53h-103.01l-224.85-235.62h-7.69v235.62h-93.4V12.87h254.45c98.01,0,176.04,56.12,176.04,160.28ZM1402.79,259.25c58.04,0,98.4-28.44,98.4-84.18s-40.36-84.18-98.4-84.18h-146.83v168.35h146.83ZM791.89,0C632.95,0,504.1,128.85,504.1,287.79s128.85,287.79,287.79,287.79,287.79-128.85,287.79-287.79S950.84,0,791.89,0ZM791.89,484.69c-108.74,0-196.9-88.15-196.9-196.9s88.15-196.9,196.9-196.9,196.9,88.15,196.9,196.9-88.15,196.9-196.9,196.9ZM1931.23,0c-158.94,0-287.79,128.85-287.79,287.79s128.85,287.79,287.79,287.79,287.79-128.85,287.79-287.79S2090.17,0,1931.23,0ZM1734.33,287.79c0-108.74,88.15-196.9,196.9-196.9s196.9,88.15,196.9,196.9c0,43.94-14.4,84.52-38.73,117.28l-117.28-117.28-66.04,66.04,111.13,111.13c-25.98,12.63-55.15,19.72-85.98,19.72-108.74,0-196.9-88.15-196.9-196.9ZM507.4,13.34h-109.04l-143.47,198.88L111.43,13.34H2.39l197.99,274.45L0,565.55h109.04l145.85-202.18,145.85,202.18h109.04l-200.37-277.76L507.4,13.34Z"/>
</svg>
